<?xml version="1.0" encoding="utf-8"?>
<!-- Generator: Adobe Illustrator 17.0.0, SVG Export Plug-In . SVG Version: 6.00 Build 0)  -->
<!DOCTYPE svg PUBLIC "-//W3C//DTD SVG 1.1//EN" "http://www.w3.org/Graphics/SVG/1.1/DTD/svg11.dtd" [
	<!ENTITY ns_extend "http://ns.adobe.com/Extensibility/1.0/">
	<!ENTITY ns_ai "http://ns.adobe.com/AdobeIllustrator/10.0/">
	<!ENTITY ns_graphs "http://ns.adobe.com/Graphs/1.0/">
	<!ENTITY ns_vars "http://ns.adobe.com/Variables/1.0/">
	<!ENTITY ns_imrep "http://ns.adobe.com/ImageReplacement/1.0/">
	<!ENTITY ns_sfw "http://ns.adobe.com/SaveForWeb/1.0/">
	<!ENTITY ns_custom "http://ns.adobe.com/GenericCustomNamespace/1.0/">
	<!ENTITY ns_adobe_xpath "http://ns.adobe.com/XPath/1.0/">
]>
<svg version="1.1" id="Capa_1" xmlns:x="&ns_extend;" xmlns:i="&ns_ai;" xmlns:graph="&ns_graphs;"
	 xmlns="http://www.w3.org/2000/svg" xmlns:xlink="http://www.w3.org/1999/xlink" x="0px" y="0px" width="30.872px"
	 height="30.872px" viewBox="0 0 30.872 30.872" enable-background="new 0 0 30.872 30.872" xml:space="preserve">
<metadata>
	<sfw  xmlns="&ns_sfw;">
		<slices></slices>
		<sliceSourceBounds  height="28.576" width="22.192" bottomLeftOrigin="true" x="3.257" y="3.36"></sliceSourceBounds>
	</sfw>
</metadata>
<circle fill="none" cx="13.044" cy="1.533" r="0.657"/>
<path fill="#D0D0D0" d="M19.306,16.419c-0.854,0-1.667,0.179-2.405,0.498c0.724-0.306,1.521-0.476,2.357-0.476
	c3.344,0,6.056,2.711,6.056,6.056c0,3.344-2.711,6.056-6.056,6.056c-0.879,0-1.712-0.191-2.466-0.528
	c0.767,0.35,1.617,0.551,2.514,0.551c1.193,0,2.308-0.353,3.249-0.95c0,0,1.412-0.862,1.881-1.879
	c0.438-0.545,0.949-2.053,0.949-3.249C25.385,19.145,22.657,16.419,19.306,16.419z"/>
<path fill="#D0D0D0" d="M19.258,16.442c-0.836,0-1.632,0.169-2.357,0.476c-2.174,0.919-3.699,3.071-3.699,5.58
	c0,2.465,1.476,4.583,3.59,5.528c0.754,0.337,1.587,0.528,2.466,0.528c3.344,0,6.056-2.711,6.056-6.056
	C25.314,19.153,22.602,16.442,19.258,16.442z M19.305,26.676c-2.305,0-4.179-1.875-4.179-4.179c0-2.306,1.875-4.181,4.179-4.181
	c2.304,0,4.18,1.875,4.18,4.181C23.485,24.801,21.61,26.676,19.305,26.676z"/>
<path fill="#D0D0D0" d="M14.342,17.516h-7.21c-0.242,0-0.438,0.195-0.438,0.438v0.439c0,0.241,0.195,0.438,0.438,0.438h6.18
	C13.605,18.352,13.947,17.908,14.342,17.516z"/>
<path fill="#D0D0D0" d="M10.184,4.817h5.719c0.719,0,1.301-0.582,1.301-1.3V3.49c0-0.718-0.582-1.3-1.301-1.3h-0.674
	c-0.36,0-0.652-0.292-0.652-0.653V1.515C14.577,0.679,13.898,0,13.061,0h-0.035c-0.836,0-1.515,0.678-1.515,1.515v0.022
	c0,0.36-0.293,0.653-0.651,0.653h-0.676c-0.719,0-1.3,0.582-1.3,1.3v0.026C8.884,4.235,9.465,4.817,10.184,4.817z M13.044,0.876
	c0.362,0,0.656,0.294,0.656,0.657c0,0.362-0.294,0.657-0.656,0.657c-0.363,0-0.657-0.294-0.657-0.657
	C12.387,1.17,12.681,0.876,13.044,0.876z"/>
<path fill="#D0D0D0" d="M7.132,21.457c-0.242,0-0.438,0.195-0.438,0.438v0.438c0,0.241,0.195,0.438,0.438,0.438h5.15
	c-0.003-0.092-0.014-0.182-0.014-0.273c0-0.354,0.034-0.7,0.085-1.041H7.132z"/>
<path fill="#D0D0D0" d="M19.393,14.888V14.45c0-0.242-0.195-0.438-0.438-0.438H7.132c-0.242,0-0.438,0.196-0.438,0.438v0.438
	c0,0.242,0.195,0.438,0.438,0.438h11.824C19.198,15.326,19.393,15.13,19.393,14.888z"/>
<path fill="#D0D0D0" d="M5.381,25.397L5.381,25.397V7.882h15.327v7.72c0.785,0.159,1.521,0.457,2.188,0.854V5.218
	c0-0.847-0.688-1.534-1.534-1.534H18.06c-0.098,1.132-1.021,2.009-2.157,2.009h-5.719c-1.135,0-2.06-0.877-2.157-1.989h-3.3
	c-0.848,0-1.534,0.687-1.534,1.534v20.814c0,0.847,0.687,1.534,1.534,1.534h9.734c-0.65-0.62-1.182-1.361-1.559-2.189H5.381z"/>
<path fill="#D0D0D0" d="M19.393,10.509c0-0.242-0.195-0.438-0.438-0.438H7.132c-0.242,0-0.438,0.196-0.438,0.438v0.438
	c0,0.242,0.195,0.438,0.438,0.438h11.824c0.242,0,0.438-0.196,0.438-0.438L19.393,10.509z"/>
<polyline fill="none" stroke="#D0D0D0" stroke-linecap="round" stroke-linejoin="round" stroke-miterlimit="10" points="
	17.048,22.467 18.365,23.842 21.467,21.153 "/>
</svg>
