<?xml version="1.0" encoding="utf-8"?>
<!-- Generator: Adobe Illustrator 17.0.0, SVG Export Plug-In . SVG Version: 6.00 Build 0)  -->
<!DOCTYPE svg PUBLIC "-//W3C//DTD SVG 1.1//EN" "http://www.w3.org/Graphics/SVG/1.1/DTD/svg11.dtd" [
	<!ENTITY ns_extend "http://ns.adobe.com/Extensibility/1.0/">
	<!ENTITY ns_ai "http://ns.adobe.com/AdobeIllustrator/10.0/">
	<!ENTITY ns_graphs "http://ns.adobe.com/Graphs/1.0/">
	<!ENTITY ns_vars "http://ns.adobe.com/Variables/1.0/">
	<!ENTITY ns_imrep "http://ns.adobe.com/ImageReplacement/1.0/">
	<!ENTITY ns_sfw "http://ns.adobe.com/SaveForWeb/1.0/">
	<!ENTITY ns_custom "http://ns.adobe.com/GenericCustomNamespace/1.0/">
	<!ENTITY ns_adobe_xpath "http://ns.adobe.com/XPath/1.0/">
]>
<svg version="1.1" id="Layer_1" xmlns:x="&ns_extend;" xmlns:i="&ns_ai;" xmlns:graph="&ns_graphs;"
	 xmlns="http://www.w3.org/2000/svg" xmlns:xlink="http://www.w3.org/1999/xlink" x="0px" y="0px" width="32px" height="32px"
	 viewBox="0 0 32 32" enable-background="new 0 0 32 32" xml:space="preserve">
<metadata>
	<sfw  xmlns="&ns_sfw;">
		<slices></slices>
		<sliceSourceBounds  height="28.187" width="28.188" bottomLeftOrigin="true" x="1.586" y="-29.753"></sliceSourceBounds>
	</sfw>
</metadata>
<g>
	<path fill="#D0D0D0" d="M23.008,11.714h-6.024c0.547,0,0.989-0.441,0.989-0.988c0-0.543-0.446-0.985-0.989-0.985h-2.46
		c-0.543,0-0.985,0.442-0.985,0.985c0,0.547,0.442,0.988,0.985,0.988H8.5c-1.672,0-3.059,1.504-3.328,3.102H26.34
		C26.07,13.214,24.684,11.714,23.008,11.714L23.008,11.714z M23.008,11.714"/>
	<path fill="#D0D0D0" d="M26.391,16.507v-0.281H1.586v1.41h3.535v8.734c0,1.867,1.512,3.383,3.379,3.383h14.508
		c1.867,0,3.383-1.516,3.383-3.383v-8.453h3.383v-1.41H26.391z M26.391,16.507"/>
	<path fill="#D0D0D0" d="M10.578,4.952c0.098,0.129,0.203,0.254,0.313,0.371l0.273,0.274c0.172,0.176,0.332,0.348,0.461,0.504
		c0.063,0.078,0.117,0.152,0.156,0.215c0.039,0.062,0.071,0.109,0.078,0.179c0.012,0.075-0.027,0.176-0.105,0.278
		c-0.074,0.101-0.184,0.195-0.309,0.293c0.149,0.058,0.313,0.078,0.485,0.058c0.172-0.023,0.359-0.097,0.519-0.262
		c0.157-0.164,0.242-0.406,0.254-0.621c0.016-0.214-0.015-0.41-0.066-0.586c-0.098-0.351-0.262-0.636-0.434-0.894
		c-0.09-0.129-0.195-0.258-0.273-0.359c-0.078-0.09-0.149-0.184-0.211-0.274c-0.266-0.367-0.449-0.699-0.52-1.09
		c-0.07-0.394,0.008-0.894,0.246-1.472c-0.617,0.129-1.164,0.644-1.343,1.367c-0.09,0.355-0.071,0.746,0.023,1.09
		C10.219,4.374,10.387,4.683,10.578,4.952L10.578,4.952z M10.578,4.952"/>
	<path fill="#D0D0D0" d="M14.234,4.952c0.098,0.129,0.204,0.254,0.313,0.371l0.269,0.274c0.176,0.176,0.336,0.348,0.465,0.504
		c0.063,0.078,0.114,0.152,0.157,0.215c0.039,0.062,0.07,0.109,0.078,0.179c0.008,0.075-0.028,0.176-0.106,0.278
		c-0.078,0.101-0.183,0.195-0.312,0.293c0.152,0.058,0.316,0.078,0.488,0.058c0.168-0.023,0.359-0.097,0.516-0.262
		c0.16-0.164,0.246-0.406,0.257-0.621c0.016-0.214-0.015-0.41-0.066-0.586c-0.098-0.351-0.262-0.636-0.437-0.894
		c-0.086-0.129-0.196-0.258-0.27-0.359c-0.074-0.09-0.148-0.184-0.211-0.274c-0.266-0.367-0.453-0.699-0.519-1.09
		c-0.075-0.39,0.003-0.894,0.242-1.472c-0.617,0.132-1.164,0.648-1.344,1.367c-0.086,0.359-0.07,0.75,0.027,1.094
		C13.875,4.374,14.039,4.683,14.234,4.952L14.234,4.952z M14.234,4.952"/>
	<path fill="#D0D0D0" d="M17.563,4.952c0.097,0.129,0.203,0.254,0.312,0.371l0.273,0.274c0.172,0.176,0.333,0.348,0.461,0.504
		c0.067,0.078,0.118,0.152,0.157,0.215c0.039,0.062,0.07,0.109,0.082,0.179c0.008,0.075-0.032,0.176-0.11,0.278
		c-0.074,0.101-0.183,0.195-0.308,0.293c0.148,0.058,0.312,0.078,0.484,0.058c0.172-0.023,0.36-0.097,0.52-0.262
		c0.156-0.164,0.242-0.406,0.254-0.621c0.015-0.214-0.016-0.41-0.067-0.586c-0.097-0.351-0.258-0.636-0.433-0.894
		c-0.09-0.129-0.196-0.258-0.274-0.359c-0.074-0.09-0.148-0.184-0.211-0.274c-0.265-0.367-0.449-0.699-0.519-1.09
		c-0.071-0.394,0.007-0.894,0.246-1.472c-0.617,0.129-1.168,0.644-1.344,1.367c-0.09,0.355-0.07,0.746,0.023,1.09
		C17.207,4.374,17.371,4.683,17.563,4.952L17.563,4.952z M17.563,4.952"/>
</g>
</svg>
