<?xml version="1.0" encoding="utf-8"?>
<!-- Generator: Adobe Illustrator 17.0.0, SVG Export Plug-In . SVG Version: 6.00 Build 0)  -->
<!DOCTYPE svg PUBLIC "-//W3C//DTD SVG 1.1//EN" "http://www.w3.org/Graphics/SVG/1.1/DTD/svg11.dtd" [
	<!ENTITY ns_extend "http://ns.adobe.com/Extensibility/1.0/">
	<!ENTITY ns_ai "http://ns.adobe.com/AdobeIllustrator/10.0/">
	<!ENTITY ns_graphs "http://ns.adobe.com/Graphs/1.0/">
	<!ENTITY ns_vars "http://ns.adobe.com/Variables/1.0/">
	<!ENTITY ns_imrep "http://ns.adobe.com/ImageReplacement/1.0/">
	<!ENTITY ns_sfw "http://ns.adobe.com/SaveForWeb/1.0/">
	<!ENTITY ns_custom "http://ns.adobe.com/GenericCustomNamespace/1.0/">
	<!ENTITY ns_adobe_xpath "http://ns.adobe.com/XPath/1.0/">
]>
<svg version="1.1" id="Layer_1" xmlns:x="&ns_extend;" xmlns:i="&ns_ai;" xmlns:graph="&ns_graphs;"
	 xmlns="http://www.w3.org/2000/svg" xmlns:xlink="http://www.w3.org/1999/xlink" x="0px" y="0px" width="32px" height="32px"
	 viewBox="0 0 32 32" enable-background="new 0 0 32 32" xml:space="preserve">
<metadata>
	<sfw  xmlns="&ns_sfw;">
		<slices></slices>
		<sliceSourceBounds  height="30.625" width="30.625" bottomLeftOrigin="true" x="0.188" y="1.188"></sliceSourceBounds>
	</sfw>
</metadata>
<g>
	<path fill="#D0D0D0" d="M30.938,29.138l-7.362-7.363C25.4,19.55,26.5,16.7,26.5,13.594c0-7.125-5.781-12.906-12.906-12.906
		c-7.131,0-12.906,5.781-12.906,12.906S6.463,26.5,13.594,26.5c3.106,0,5.95-1.094,8.175-2.919l7.363,7.356
		c0.5,0.5,1.306,0.5,1.806,0C31.438,30.444,31.438,29.631,30.938,29.138z M13.594,23.931c-5.706,0-10.344-4.637-10.344-10.337
		S7.887,3.25,13.594,3.25c5.7,0,10.344,4.644,10.344,10.344S19.294,23.931,13.594,23.931z"/>
</g>
<g>
	<g>
		<g>
			<path fill="#D0D0D0" d="M19.425,11.386H19.18V7.522l-0.669,0.534c-1.785,1.427-3.622,2.285-4.851,2.754
				c-0.758,0.289-1.382,0.47-1.782,0.572v-0.326H7.664v0.732H6.566v3.038h1.098v0.732h0.917l0.824,3.782h2.558l-0.824-3.782h0.738
				v-0.326c0.401,0.102,1.026,0.283,1.782,0.572c1.227,0.468,3.066,1.326,4.851,2.754l0.669,0.534v-3.864h0.245
				c0.553,0,1.003-0.45,1.003-1.003v-1.837C20.428,11.836,19.977,11.386,19.425,11.386z M7.662,14.003H7.388v-1.391h0.275V14.003z
				 M10.067,18.517l-0.644-2.959h0.872l0.644,2.959H10.067z M11.053,14.716v0.02h-0.094H8.486V11.88h2.567V14.716z M18.355,11.386
				v3.843v2.177c-1.656-1.198-3.289-1.947-4.424-2.379c-0.925-0.351-1.654-0.548-2.055-0.643v-2.152
				c0.4-0.095,1.13-0.292,2.055-0.643c1.136-0.432,2.768-1.181,4.424-2.379V11.386z M19.604,14.226c0,0.099-0.081,0.179-0.179,0.179
				H19.18V12.21h0.245c0.099,0,0.179,0.081,0.179,0.179V14.226z"/>
		</g>
	</g>
	<g>
		<g>
			<path fill="none" stroke="#D0D0D0" stroke-width="0.244" d="M19.425,11.386H19.18V7.522l-0.669,0.534
				c-1.785,1.427-3.622,2.285-4.851,2.754c-0.758,0.289-1.382,0.47-1.782,0.572v-0.326H7.664v0.732H6.566v3.038h1.098v0.732h0.917
				l0.824,3.782h2.558l-0.824-3.782h0.738v-0.326c0.401,0.102,1.026,0.283,1.782,0.572c1.227,0.468,3.066,1.326,4.851,2.754
				l0.669,0.534v-3.864h0.245c0.553,0,1.003-0.45,1.003-1.003v-1.837C20.428,11.836,19.977,11.386,19.425,11.386z M7.662,14.003
				H7.388v-1.391h0.275V14.003z M10.067,18.517l-0.644-2.959h0.872l0.644,2.959H10.067z M11.053,14.716v0.02h-0.094H8.486V11.88
				h2.567V14.716z M18.355,11.386v3.843v2.177c-1.656-1.198-3.289-1.947-4.424-2.379c-0.925-0.351-1.654-0.548-2.055-0.643v-2.152
				c0.4-0.095,1.13-0.292,2.055-0.643c1.136-0.432,2.768-1.181,4.424-2.379V11.386z M19.604,14.226c0,0.099-0.081,0.179-0.179,0.179
				H19.18V12.21h0.245c0.099,0,0.179,0.081,0.179,0.179V14.226z"/>
		</g>
	</g>
</g>
</svg>
