<?xml version="1.0" encoding="utf-8"?>
<!-- Generator: Adobe Illustrator 17.0.0, SVG Export Plug-In . SVG Version: 6.00 Build 0)  -->
<!DOCTYPE svg PUBLIC "-//W3C//DTD SVG 1.1//EN" "http://www.w3.org/Graphics/SVG/1.1/DTD/svg11.dtd" [
	<!ENTITY ns_extend "http://ns.adobe.com/Extensibility/1.0/">
	<!ENTITY ns_ai "http://ns.adobe.com/AdobeIllustrator/10.0/">
	<!ENTITY ns_graphs "http://ns.adobe.com/Graphs/1.0/">
	<!ENTITY ns_vars "http://ns.adobe.com/Variables/1.0/">
	<!ENTITY ns_imrep "http://ns.adobe.com/ImageReplacement/1.0/">
	<!ENTITY ns_sfw "http://ns.adobe.com/SaveForWeb/1.0/">
	<!ENTITY ns_custom "http://ns.adobe.com/GenericCustomNamespace/1.0/">
	<!ENTITY ns_adobe_xpath "http://ns.adobe.com/XPath/1.0/">
]>
<svg version="1.1" id="Capa_1" xmlns:x="&ns_extend;" xmlns:i="&ns_ai;" xmlns:graph="&ns_graphs;"
	 xmlns="http://www.w3.org/2000/svg" xmlns:xlink="http://www.w3.org/1999/xlink" x="0px" y="0px" width="40px" height="32px"
	 viewBox="-0.333 0 40 32" enable-background="new -0.333 0 40 32" xml:space="preserve">
<metadata>
	<sfw  xmlns="&ns_sfw;">
		<slices></slices>
		<sliceSourceBounds  height="24.625" width="39.479" bottomLeftOrigin="true" x="-0.5" y="2.188"></sliceSourceBounds>
	</sfw>
</metadata>
<path fill="none" d="M8.438,16.938c-0.518,0-0.938,0.419-0.938,0.938v1.875c0,0.518,0.419,0.938,0.938,0.938
	s0.938-0.419,0.938-0.938v-1.875C9.375,17.357,8.956,16.938,8.438,16.938z"/>
<path fill="none" d="M8.438,11.313c-0.518,0-0.938,0.419-0.938,0.938v1.875c0,0.518,0.419,0.938,0.938,0.938
	s0.938-0.419,0.938-0.938V12.25C9.375,11.732,8.956,11.313,8.438,11.313z"/>
<path fill="none" d="M33.509,15.969c0-1.776-0.561-3.422-1.509-4.779v9.556C32.948,19.39,33.509,17.745,33.509,15.969z"/>
<path fill="#D0D0D0" d="M39.176,28.552l-5.96-5.96c1.477-1.801,2.368-4.108,2.368-6.623c0-3.138-1.392-5.946-3.583-7.862
	c-1.406-1.229-3.141-2.084-5.059-2.42h-3.613H9.453V8.5c0,0.518-0.419,0.938-0.938,0.938S7.578,9.018,7.578,8.5V5.688h-6.64
	C0.419,5.688,0,6.107,0,6.625v5.625c0,0.518,0.419,0.938,0.938,0.938c1.551,0,2.813,1.262,2.813,2.813s-1.262,2.813-2.813,2.813
	C0.419,18.813,0,19.232,0,19.75v5.625c0,0.518,0.419,0.938,0.938,0.938H7.5V23.5c0-0.518,0.419-0.938,0.938-0.938
	s0.938,0.419,0.938,0.938v2.813h14.363h2.807c1.961-0.265,3.75-1.063,5.208-2.259L32,24.3l5.713,5.708
	c0.405,0.405,1.057,0.405,1.462,0C39.58,29.609,39.58,28.951,39.176,28.552z M9.375,19.75c0,0.518-0.419,0.938-0.938,0.938
	S7.5,20.268,7.5,19.75v-1.875c0-0.518,0.419-0.938,0.938-0.938s0.938,0.419,0.938,0.938V19.75z M9.375,14.125
	c0,0.518-0.419,0.938-0.938,0.938S7.5,14.643,7.5,14.125V12.25c0-0.518,0.419-0.938,0.938-0.938s0.938,0.419,0.938,0.938V14.125z
	 M25.135,24.337c-4.619,0-8.374-3.754-8.374-8.368s3.754-8.374,8.374-8.374c2.838,0,5.349,1.426,6.865,3.595
	c0.948,1.357,1.509,3.003,1.509,4.779S32.948,19.39,32,20.746C30.485,22.914,27.974,24.337,25.135,24.337z"/>
</svg>
